<svg width="40" height="35" viewBox="0 0 40 35" fill="none" xmlns="http://www.w3.org/2000/svg">
<path d="M13.4922 0C12.1875 0 11.1094 1.07422 11.1094 2.38281C11.1094 3.40625 11.7812 4.28125 12.6992 4.61328V9.52344C12.6992 10 13.0156 10.3164 13.4922 10.3164C13.9688 10.3164 14.2852 10 14.2852 9.52344V4.76172H15.0781V9.52344C15.0781 10 15.3945 10.3164 15.8711 10.3164C16.3516 10.3164 16.668 10 16.668 9.52344V4.76172H17.4609V9.52344C17.4609 10 17.7773 10.3164 18.2539 10.3164C18.7305 10.3164 19.0469 10 19.0469 9.52344V4.76172H19.8398V9.52344C19.8398 10 20.1562 10.3164 20.6367 10.3164C21.1133 10.3164 21.4297 10 21.4297 9.52344V4.76172H22.2227V9.52344C22.2227 10 22.5391 10.3164 23.0156 10.3164C23.4922 10.3164 23.8086 10 23.8086 9.52344V4.76172H24.6016V9.52344C24.6016 10 24.918 10.3164 25.3984 10.3164C25.875 10.3164 26.1914 10 26.1914 9.52344V4.76172H26.9844C27.6328 4.76172 28.1875 4.43359 28.6211 3.96875H33.7305C34.8281 3.96875 35.7148 3.08203 35.7148 1.98438C35.7148 0.886719 34.8281 0 33.7305 0H13.4922ZM13.4922 1.58594H33.7305C33.9023 1.58594 34.1289 1.8125 34.1289 1.98438C34.1289 2.15625 33.9023 2.38281 33.7305 2.38281H27.8516L27.6289 2.82812C27.5469 2.98828 27.2383 3.17578 26.9844 3.17578H13.4922C13.0508 3.17578 12.6992 2.82031 12.6992 2.38281C12.6992 1.94141 13.0508 1.58594 13.4922 1.58594ZM2.38281 6.34766C1.83984 6.34766 1.41797 6.66797 1.14062 7.01953C0.863281 7.37109 0.660156 7.79297 0.496094 8.28516C0.171875 9.26172 0 10.5234 0 11.9062C0 13.2891 0.171875 14.5508 0.496094 15.5273C0.660156 16.0156 0.863281 16.4414 1.14062 16.7891C1.41797 17.1406 1.83984 17.4609 2.38281 17.4609H3.17578V31.7461H36.5078V17.4609H37.3008C37.8438 17.4609 38.2656 17.1406 38.543 16.7891C38.8164 16.4414 39.0234 16.0156 39.1875 15.5273C39.5117 14.5508 39.6836 13.2891 39.6836 11.9062C39.6836 10.5234 39.5117 9.26172 39.1875 8.28516C39.0234 7.79297 38.8164 7.37109 38.543 7.01953C38.2656 6.66797 37.8438 6.34766 37.3008 6.34766H27.7773V7.9375H37.2266C37.2266 7.94141 37.25 7.94531 37.3008 8.01172C37.4023 8.14453 37.5508 8.42969 37.6719 8.80469C37.9258 9.55469 38.0938 10.668 38.0938 11.9062C38.0938 13.1406 37.9258 14.2539 37.6719 15.0039C37.5508 15.3789 37.4023 15.6641 37.3008 15.7969C37.25 15.8633 37.2266 15.8711 37.2266 15.8711H14.4336C14.3359 15.8555 14.2344 15.8555 14.1367 15.8711H8.87891C8.77344 15.8516 8.66016 15.8516 8.55469 15.8711H4.11719C4.01172 15.8516 3.89844 15.8516 3.79297 15.8711H2.45703C2.45703 15.8711 2.43359 15.8633 2.38281 15.7969C2.27734 15.6641 2.13281 15.3789 2.00781 15.0039C1.75781 14.2539 1.58594 13.1406 1.58594 11.9062C1.58594 10.668 1.75781 9.55469 2.00781 8.80469C2.13281 8.42969 2.27734 8.14453 2.38281 8.01172C2.43359 7.94531 2.45703 7.94141 2.45703 7.9375H11.1094V6.34766H2.38281ZM4.76172 17.4609H7.9375V26.1914C7.9375 26.6289 8.29297 26.9844 8.73047 26.9844H30.9531C31.3906 26.9844 31.7461 26.6289 31.7461 26.1914V17.4609H34.9219V30.1602H4.76172V17.4609ZM9.52344 17.4609H13.9375L19.2695 22.793C19.418 22.9492 19.6289 23.0352 19.8398 23.0352C20.0547 23.0352 20.2617 22.9492 20.4102 22.793L25.7422 17.4609H30.1602V25.3984H9.52344V17.4609ZM16.2188 17.4609H23.4609L19.8398 21.082L16.2188 17.4609ZM3.17578 32.5391V34.1289C3.17578 34.6055 3.49219 34.9219 3.96875 34.9219C4.44531 34.9219 4.76172 34.6055 4.76172 34.1289V32.5391H3.17578ZM6.34766 32.5391V34.1289C6.34766 34.6055 6.66406 34.9219 7.14453 34.9219C7.62109 34.9219 7.9375 34.6055 7.9375 34.1289V32.5391H6.34766ZM9.52344 32.5391V34.1289C9.52344 34.6055 9.83984 34.9219 10.3164 34.9219C10.793 34.9219 11.1094 34.6055 11.1094 34.1289V32.5391H9.52344ZM12.6992 32.5391V34.1289C12.6992 34.6055 13.0156 34.9219 13.4922 34.9219C13.9688 34.9219 14.2852 34.6055 14.2852 34.1289V32.5391H12.6992ZM15.8711 32.5391V34.1289C15.8711 34.6055 16.1875 34.9219 16.668 34.9219C17.1445 34.9219 17.4609 34.6055 17.4609 34.1289V32.5391H15.8711ZM19.0469 32.5391V34.1289C19.0469 34.6055 19.3633 34.9219 19.8398 34.9219C20.3203 34.9219 20.6367 34.6055 20.6367 34.1289V32.5391H19.0469ZM22.2227 32.5391V34.1289C22.2227 34.6055 22.5391 34.9219 23.0156 34.9219C23.4922 34.9219 23.8086 34.6055 23.8086 34.1289V32.5391H22.2227ZM25.3984 32.5391V34.1289C25.3984 34.6055 25.7148 34.9219 26.1914 34.9219C26.668 34.9219 26.9844 34.6055 26.9844 34.1289V32.5391H25.3984ZM28.5703 32.5391V34.1289C28.5703 34.6055 28.8867 34.9219 29.3633 34.9219C29.8438 34.9219 30.1602 34.6055 30.1602 34.1289V32.5391H28.5703ZM31.7461 32.5391V34.1289C31.7461 34.6055 32.0625 34.9219 32.5391 34.9219C33.0156 34.9219 33.332 34.6055 33.332 34.1289V32.5391H31.7461ZM34.9219 32.5391V34.1289C34.9219 34.6055 35.2383 34.9219 35.7148 34.9219C36.1914 34.9219 36.5078 34.6055 36.5078 34.1289V32.5391H34.9219Z" fill="white"/>
</svg>
