<svg width="33" height="39" viewBox="0 0 33 39" fill="none" xmlns="http://www.w3.org/2000/svg">
<path d="M23.1914 0.992188L22.5468 1.93359C22.5468 1.93359 22.1172 2.53125 21.7031 3.25C21.4961 3.60547 21.3008 3.98437 21.1328 4.36328C20.9648 4.74609 20.8086 5.09766 20.8086 5.55469C20.8086 6.85937 21.8867 7.9375 23.1914 7.9375C24.4961 7.9375 25.5703 6.85937 25.5703 5.55469C25.5703 5.09766 25.4179 4.74609 25.25 4.36328C25.082 3.98437 24.8867 3.60547 24.6797 3.25C24.2617 2.53125 23.8359 1.93359 23.8359 1.93359L23.1914 0.992188ZM29.9375 2.97656L29.2929 3.91797C29.2929 3.91797 28.7656 4.64453 28.25 5.53125C27.9922 5.97266 27.7343 6.45312 27.5312 6.91797C27.3242 7.38672 27.1601 7.82031 27.1601 8.33203C27.1601 9.85938 28.4101 11.1094 29.9375 11.1094C31.4609 11.1094 32.7148 9.85938 32.7148 8.33203C32.7148 7.82031 32.5468 7.38672 32.3437 6.91797C32.1367 6.45312 31.8789 5.97266 31.6211 5.53125C31.1093 4.64453 30.582 3.91797 30.582 3.91797L29.9375 2.97656ZM23.1914 3.86719C23.2422 3.95703 23.2383 3.94922 23.289 4.04297C23.4804 4.36719 23.6797 4.71484 23.8086 5.01172C23.9414 5.30469 23.9843 5.57812 23.9843 5.55469C23.9843 6.00391 23.6406 6.34766 23.1914 6.34766C22.7422 6.34766 22.3984 6.00391 22.3984 5.55469C22.3984 5.57812 22.4414 5.30469 22.5703 5.01172C22.6992 4.71484 22.9023 4.36719 23.0898 4.04297C23.1445 3.94922 23.1367 3.95703 23.1914 3.86719ZM29.9375 5.85156C30.0742 6.06641 30.0859 6.06641 30.2343 6.32422C30.4726 6.73828 30.7109 7.18359 30.8789 7.56641C31.0468 7.94531 31.1289 8.30078 31.1289 8.33203C31.1289 9 30.6015 9.52344 29.9375 9.52344C29.2695 9.52344 28.7461 9 28.7461 8.33203C28.7461 8.30078 28.8281 7.94531 28.9922 7.56641C29.1601 7.18359 29.3984 6.73828 29.6406 6.32422C29.789 6.06641 29.8008 6.06641 29.9375 5.85156ZM11.039 6.34766C10.8633 6.37891 10.7109 6.46875 10.5898 6.59766C10.5898 6.59766 9.02731 8.26953 7.36716 10.0703C5.707 11.8711 3.99216 13.7227 3.47263 14.3867C2.89841 15.125 2.19919 16.6094 1.51559 18.0312C0.828095 19.4531 0.24997 20.7344 0.24997 20.7344C0.117158 20.9922 0.140595 21.3008 0.304658 21.5391C0.464814 21.7773 0.749969 21.9102 1.03513 21.8828C1.32419 21.8516 1.57419 21.6719 1.68747 21.4023C1.68747 21.4023 2.25388 20.125 2.92575 18.7266C3.60153 17.3242 4.47263 15.7148 4.73825 15.3789C5.05856 14.9609 6.87497 12.9336 8.53122 11.1367C9.78903 9.77344 10.457 9.07422 10.9648 8.53125C11.5195 9.71875 11.4687 11.1016 10.6914 12.1758C10.6836 12.1875 10.6718 12.1914 10.664 12.2031L10.1445 12.8242L9.94528 12.625C9.78122 12.4492 9.54294 12.3555 9.30075 12.375C9.04294 12.3984 8.81247 12.5469 8.67966 12.7734C8.67966 12.7734 7.59763 14.7891 6.42575 16.9414C5.25388 19.0898 4.03513 21.3047 3.69528 22.0742C3.31638 22.9336 2.99606 24.543 2.67966 26.0898C2.36325 27.6367 2.10934 29.0195 2.10934 29.0195C2.04684 29.3047 2.1445 29.5977 2.36716 29.7852C2.58981 29.9805 2.89841 30.0312 3.16794 29.9297C3.43747 29.8242 3.63278 29.5781 3.67184 29.2891C3.67184 29.2891 3.92966 27.9102 4.24216 26.3906C4.55466 24.8672 4.98825 23.1094 5.16013 22.7188C5.37106 22.2383 6.6445 19.8281 7.81247 17.6836C8.69528 16.0625 9.16403 15.2109 9.52341 14.5586C10.3633 15.5859 10.6523 16.9648 10.1445 18.2031L8.63278 21.8984C8.51559 22.2031 8.60153 22.5469 8.83981 22.7656C9.082 22.9844 9.43356 23.0352 9.72263 22.8906L24.1328 15.3516C24.4843 15.1758 24.7226 15.1953 24.9765 15.3008C25.2304 15.4062 25.4765 15.6445 25.5976 15.8711C25.7148 16.1016 25.7383 16.4258 25.6718 16.6914C25.6015 16.957 25.4804 17.168 25.1015 17.3594L17.1875 21.3555C16.8164 21.5625 16.6758 22.0273 16.8711 22.4062C17.0625 22.7852 17.5195 22.9453 17.9062 22.7695L25.7929 18.7734L28.0781 17.6328C28.3008 17.5234 28.6211 17.4883 28.8945 17.5586C29.1679 17.6289 29.4062 17.7695 29.5898 18.1289C29.7734 18.4883 29.7461 18.7617 29.6406 19.0234C29.5351 19.2852 29.3164 19.5312 29.0937 19.6445C29.0937 19.6445 28.1875 20.0938 27.9531 20.2148C27.1758 20.6055 26.0508 21.1562 24.1836 22.0977C22.9648 22.7109 21.75 23.3125 20.8593 23.7617C20.4336 23.9727 20.1133 24.1562 19.8672 24.2812C19.8554 24.2852 19.8281 24.3008 19.8164 24.3047H19.7929C19.6836 24.3633 19.5976 24.4023 19.5429 24.4297C19.5273 24.4375 19.5273 24.4492 19.5195 24.4531L19.4961 24.4805H19.4687H19.4453C19.4453 24.4805 20.1601 25.8945 20.164 25.8945C20.1953 25.8789 20.1836 25.8945 20.1914 25.8945H20.2148L20.2656 25.8672C20.3242 25.8398 20.414 25.7812 20.5351 25.7188C20.7812 25.5938 21.1367 25.4219 21.5781 25.1992C22.4687 24.7539 23.6836 24.125 24.9023 23.5117C26.7734 22.5703 27.8945 22.0195 28.6718 21.6289C28.9492 21.4883 29.2617 21.4297 29.4883 21.4766C29.7187 21.5273 29.9414 21.6406 30.1836 22.1211C30.3984 22.543 30.375 22.7266 30.2578 22.9648C30.1445 23.2031 29.8164 23.5547 29.1172 23.9102L26.2656 25.3477L20.8593 28.0508C20.4883 28.2578 20.3476 28.7227 20.539 29.1016C20.7304 29.4844 21.1914 29.6406 21.5781 29.4648L26.9843 26.7617C27.3476 26.5781 27.8398 26.3711 28.1992 26.3633C28.5586 26.3594 28.7539 26.3867 29.0429 26.9609C29.3359 27.5312 29.2343 27.7148 29.0195 28C28.8008 28.2852 28.3398 28.5625 27.9765 28.7461C27.9765 28.7461 17.1484 34.3594 14.5586 35.5664C11.2695 37.1016 6.82028 36.2852 6.82028 36.2852C6.39059 36.1953 5.96872 36.4727 5.87888 36.9062C5.78903 37.3359 6.06638 37.7578 6.49997 37.8477C6.49997 37.8477 11.2734 38.8477 15.2304 37.0039C17.9726 35.7227 28.664 30.1758 28.6953 30.1602C28.7031 30.1562 28.7148 30.1367 28.7226 30.1328C29.1562 29.9141 29.8047 29.6016 30.2851 28.9688C30.7734 28.3242 30.9687 27.2539 30.457 26.2383C30.2656 25.8594 29.9804 25.625 29.6875 25.3984L29.8125 25.3242C29.8203 25.3242 29.8281 25.3242 29.8359 25.3242C30.707 24.8828 31.3515 24.3672 31.6992 23.6602C32.0429 22.9531 31.9609 22.1211 31.5976 21.4023C31.3359 20.8828 30.9453 20.5195 30.5312 20.2617C30.7265 20.0352 31.0078 19.9102 31.1289 19.6172C31.3828 18.9727 31.3828 18.1562 31.0039 17.4102C30.625 16.6641 29.9648 16.1953 29.2929 16.0234C28.6172 15.8477 27.9336 15.9297 27.3554 16.2188L27.1328 16.3438C27.1289 16.1602 27.1367 15.9766 27.1328 15.7969C27.7656 15.1055 27.9375 14.1445 27.7539 13.3438C27.6133 12.7227 27.2656 12.1445 26.7109 11.7305C26.1601 11.3203 25.3906 11.1016 24.5781 11.2852C24.5703 11.293 24.5625 11.3008 24.5547 11.3086L11.4336 14.4609C11.3632 14.3242 11.2695 14.1953 11.1875 14.0625L11.9062 13.1953C11.914 13.1797 11.9258 13.1602 11.9297 13.1445C13.164 11.4727 13.3008 9.23437 12.2539 7.44141L11.8554 6.74609C11.6953 6.45312 11.3672 6.29687 11.039 6.34766ZM25.1992 12.8242C25.4375 12.8125 25.6054 12.8711 25.7695 12.9961C25.9883 13.1602 26.1601 13.4375 26.2148 13.6914C26.2539 13.8477 26.2539 14.0352 26.2148 14.2109C26.0273 14.0664 25.8242 13.9336 25.5976 13.8398C24.9609 13.5742 24.1562 13.5625 23.414 13.9375C23.4062 13.9375 23.3984 13.9375 23.3906 13.9375L10.914 20.4609L11.6093 18.8008C11.9843 17.8867 12.0859 16.9023 11.9297 15.9727L24.9258 12.8477C25.0234 12.8242 25.1172 12.8242 25.1992 12.8242Z" fill="white"/>
</svg>
