<svg width="38" height="38" viewBox="0 0 38 38" fill="none" xmlns="http://www.w3.org/2000/svg">
<path d="M18.8398 0.585938C8.80469 0.585938 0.585938 8.80469 0.585938 18.8398C0.585938 28.875 8.80469 37.0938 18.8398 37.0938C28.875 37.0938 37.0938 28.875 37.0938 18.8398C37.0938 8.80469 28.875 0.585938 18.8398 0.585938ZM18.8398 2.17578C28.0117 2.17578 35.5078 9.67188 35.5078 18.8398C35.5078 28.0117 28.0117 35.5078 18.8398 35.5078C9.67188 35.5078 2.17578 28.0117 2.17578 18.8398C2.17578 9.67188 9.67188 2.17578 18.8398 2.17578ZM18.2109 5.34766C17.8633 5.34766 17.4883 5.44531 17.1797 5.69141C16.7617 6.01562 16.5391 6.53516 16.4648 7.12109C16.4648 7.12109 16.4648 7.12891 16.4648 7.13672C16.2695 9.20703 15.4766 10.2969 14.4922 11.207C13.5039 12.1211 12.2695 12.7695 11.3398 13.8672C11.3359 13.8711 11.3359 13.875 11.3359 13.8789C10.5898 14.7773 10.0781 15.7266 9.61328 16.375C9.38672 16.6953 9.16797 16.9414 8.99219 17.0781C8.8125 17.2109 8.69922 17.2539 8.52344 17.2539V18.8398C9.07031 18.8398 9.57031 18.6289 9.95312 18.3359C10.3359 18.043 10.6328 17.6836 10.9062 17.293C11.457 16.5234 11.9375 15.6406 12.5547 14.8906C12.5586 14.8906 12.5586 14.8867 12.5586 14.8867C13.207 14.125 14.4062 13.4492 15.5664 12.375C16.7344 11.2969 17.8125 9.73438 18.043 7.28516V7.30859C18.082 6.99609 18.1602 6.94141 18.1602 6.94141C18.1562 6.94141 18.1562 6.92578 18.2695 6.94531C18.5039 6.98437 18.9922 7.33594 19.1484 7.60547C19.1484 7.60937 19.1523 7.61328 19.1523 7.61719C19.4688 8.15234 19.5 8.9375 19.3047 9.83984C19.1094 10.7383 18.6992 11.707 18.3164 12.5078C18.3125 12.5156 18.3125 12.5195 18.3086 12.5273C18.1055 12.9766 18.0078 13.4297 18.0664 13.8789C18.125 14.3242 18.3711 14.7383 18.6875 15.0078C19.3281 15.5508 20.1523 15.668 21.0469 15.668H25.1914C25.7344 15.668 26.0977 15.7852 26.2656 15.8906C26.4336 16 26.4258 16.0156 26.4258 16.1055C26.4258 16.543 26.293 17.4883 26.293 17.4883C26.2305 17.8711 26.457 18.2383 26.8242 18.3594C26.8242 18.3594 27.5703 18.5703 27.5703 19.3281C27.5703 20.0508 26.8633 20.4141 26.8633 20.4141C26.582 20.5547 26.4102 20.8516 26.4258 21.1641C26.4414 21.4805 26.6445 21.7539 26.9375 21.8672C26.9375 21.8672 27.5703 22.0508 27.5703 22.7734C27.5703 23.1094 27.3828 23.3516 27.1133 23.5703C26.8438 23.7891 26.5781 23.8945 26.5781 23.8945C26.3438 23.9844 26.168 24.1758 26.0977 24.4141C26.0273 24.6523 26.0742 24.9102 26.2227 25.1133C26.2227 25.1133 26.4961 25.4961 26.4961 25.9961C26.4961 26.1914 26.4922 26.293 26.457 26.3828C26.418 26.4727 26.3633 26.5898 26.0664 26.7734C25.4727 27.1289 23.8906 27.5703 20.5508 27.5703C16.0781 27.5703 14.1484 27.1875 12.8164 26.8086C11.4883 26.4297 10.5664 25.9844 8.52344 25.9844V27.5703C10.3516 27.5703 10.9297 27.918 12.3828 28.3359C13.8359 28.75 15.9844 29.1602 20.5508 29.1602C24.0195 29.1602 25.8086 28.7773 26.8828 28.1289C27.418 27.8086 27.7695 27.375 27.9336 26.9609C28.0977 26.543 28.082 26.1641 28.082 25.9961C28.082 25.5742 27.9609 25.2539 27.8555 24.957C27.9727 24.8828 27.9805 24.9102 28.1094 24.8047C28.5938 24.4141 29.1602 23.7266 29.1602 22.7734C29.1602 22.0078 28.8203 21.4805 28.4531 21.0977C28.8164 20.6875 29.1602 20.1172 29.1602 19.3281C29.1602 18.0898 28.4492 17.5273 27.9062 17.207C27.9531 16.8867 28.0117 16.5859 28.0117 16.1055C28.0117 15.4727 27.6367 14.8789 27.1133 14.5508C26.5898 14.2188 25.9453 14.0781 25.1914 14.0781H21.0469C20.3516 14.0781 19.8477 13.9062 19.7148 13.793C19.6523 13.7383 19.6484 13.7305 19.6367 13.668C19.6328 13.6016 19.6367 13.4414 19.7578 13.1758C20.1602 12.332 20.6172 11.2773 20.8555 10.1719C21.0977 9.0625 21.1367 7.85547 20.5234 6.8125C20.1016 6.08203 19.4102 5.53516 18.5547 5.37891C18.4453 5.36328 18.3281 5.35156 18.2109 5.34766Z" fill="white"/>
</svg>
