<svg width="36" height="36" viewBox="0 0 36 36" fill="none" xmlns="http://www.w3.org/2000/svg">
<path d="M8.31641 0.382812C3.94141 0.382812 0.382812 3.94141 0.382812 8.31641V27.3633C0.382812 31.7383 3.94141 35.3008 8.31641 35.3008H27.3633C31.7383 35.3008 35.3008 31.7383 35.3008 27.3633V8.31641C35.3008 3.94141 31.7383 0.382812 27.3633 0.382812H8.31641ZM8.31641 1.96875H27.3633C30.8789 1.96875 33.7148 4.80078 33.7148 8.31641V27.3633C33.7148 30.8789 30.8789 33.7148 27.3633 33.7148H8.31641C4.80078 33.7148 1.96875 30.8789 1.96875 27.3633V8.31641C1.96875 4.80078 4.80078 1.96875 8.31641 1.96875ZM17.8398 10.6992C13.1719 10.6992 11.4922 14.8047 11.4922 17.8516C11.4922 23.3906 15.3477 24.9844 17.8398 24.9844C22.7109 24.9844 24.1914 20.7344 24.1914 17.8516C24.1914 15.4648 23.0156 10.6992 17.8398 10.6992ZM17.8398 12.2266C22.25 12.2266 22.4258 17.1641 22.4258 17.8516C22.4258 21.3086 20.4844 23.4727 17.8398 23.4727C13.4297 23.4727 13.2578 18.5391 13.2578 17.8516C13.2578 13.1211 16.3203 12.2266 17.8398 12.2266ZM27.7617 21.8086C26.4336 21.8086 25.3164 22.8828 25.3164 24.2109H26.9023C26.9023 23.7656 27.2656 23.3984 27.7617 23.3984C28.2578 23.3984 28.6211 23.7656 28.6211 24.2109C28.6211 24.6562 28.2578 25.0234 27.7617 25.0234V26.6133C28.4336 26.6133 28.9531 27.1289 28.9531 27.7852C28.9531 28.4336 28.4336 28.9531 27.7617 28.9531C27.0898 28.9531 26.5703 28.4336 26.5703 27.7852H24.9844C24.9844 29.3008 26.2422 30.5391 27.7617 30.5391C29.2812 30.5391 30.5391 29.3008 30.5391 27.7852C30.5391 26.957 30.1484 26.2344 29.5586 25.7266C29.9258 25.3086 30.207 24.8047 30.207 24.2109C30.207 22.8828 29.0938 21.8086 27.7617 21.8086Z" fill="white"/>
</svg>
