<svg width="38" height="38" viewBox="0 0 38 38" fill="none" xmlns="http://www.w3.org/2000/svg">
<path d="M21.7188 0.585938C21.4492 0.589843 21.1758 0.601563 20.8984 0.636719C20.3516 0.707031 19.75 0.894531 19.2891 1.35547L1.25781 19.3867C0.367188 20.2773 0.367188 21.7461 1.25781 22.6367L15.0469 36.4258C15.9375 37.3164 17.4062 37.3164 18.2969 36.4258L36.3281 18.3945C36.7852 17.9375 36.9727 17.3281 37.0469 16.7812C37.1172 16.2383 37.0938 15.6992 37.0938 15.1719V3.36328C37.0938 1.83984 35.8438 0.585938 34.3164 0.585938H22.5117C22.2539 0.585938 21.9883 0.585938 21.7188 0.585938ZM21.7422 2.17578C21.9766 2.16797 22.2422 2.17578 22.5117 2.17578H34.3164C34.9844 2.17578 35.5078 2.69922 35.5078 3.36328V15.1719C35.5078 15.7227 35.5039 16.2227 35.457 16.5859C35.4102 16.9453 35.3359 17.125 35.2109 17.2539L17.1797 35.3086C16.8984 35.5898 16.4453 35.5898 16.1641 35.3086L16.0625 35.1836L2.37109 21.5195C2.08984 21.2383 2.08984 20.7852 2.37109 20.5039L20.4297 2.47266C20.5508 2.34766 20.7578 2.26953 21.1211 2.22266C21.3047 2.19922 21.5117 2.17969 21.7422 2.17578ZM29.9531 4.55469C28.207 4.55469 26.7773 5.98437 26.7773 7.73047C26.7773 9.47656 28.207 10.9062 29.9531 10.9062C31.6992 10.9062 33.1289 9.47656 33.1289 7.73047C33.1289 5.98437 31.6992 4.55469 29.9531 4.55469ZM29.9531 6.14453C30.8398 6.14453 31.5391 6.84375 31.5391 7.73047C31.5391 8.61719 30.8398 9.31641 29.9531 9.31641C29.0664 9.31641 28.3633 8.61719 28.3633 7.73047C28.3633 6.84375 29.0664 6.14453 29.9531 6.14453Z" fill="white"/>
</svg>
