<svg width="40" height="29" viewBox="0 0 40 29" fill="none" xmlns="http://www.w3.org/2000/svg">
<path d="M2.38281 0.347656C1.07422 0.347656 0 1.42578 0 2.73047V21.7773C0 23.082 1.07422 24.1602 2.38281 24.1602H5.62891C6.00781 26.4102 7.96484 28.1289 10.3164 28.1289C12.6719 28.1289 14.625 26.4102 15.0039 24.1602H22.3711C22.9492 24.1602 23.4609 23.9062 23.8594 23.5391C24.2695 23.9062 24.793 24.1602 25.3984 24.1602H26.2656C26.6445 26.4102 28.5977 28.1289 30.9531 28.1289C33.5703 28.1289 35.7148 25.9844 35.7148 23.3633C35.7148 20.7461 33.5703 18.6016 30.9531 18.6016C28.5977 18.6016 26.6445 20.3203 26.2656 22.5703H25.3984C25.2617 22.5703 25.0508 22.4727 24.875 22.2969C24.7031 22.125 24.6016 21.9102 24.6016 21.7773V6.69922C24.6016 6.56641 24.7031 6.35156 24.875 6.17578C25.0508 6.00391 25.2617 5.90625 25.3984 5.90625H31.7461C32.3984 5.90625 33.3125 6.64063 33.8789 7.34375L33.9766 7.49219H30.1602C28.8867 7.49219 27.7773 8.51953 27.7773 9.87109V13.0469C27.7773 13.707 28.0742 14.2891 28.4961 14.7109C28.918 15.1328 29.5 15.4297 30.1602 15.4297H38.0938V21.7773C38.0938 21.9102 37.9961 22.125 37.8242 22.2969C37.6484 22.4727 37.4336 22.5703 37.3008 22.5703H35.7148V24.1602H37.3008C37.9609 24.1602 38.543 23.8594 38.9648 23.4414C39.3867 23.0195 39.6836 22.4375 39.6836 21.7773V14.1641C39.6836 13.2695 39.3398 12.4531 39.0391 11.832C38.7344 11.2109 38.418 10.7656 38.418 10.7656V10.7422L35.168 6.375H35.1445V6.35156C34.4414 5.47266 33.3125 4.31641 31.7461 4.31641H25.3984C25.1133 4.31641 24.8516 4.37109 24.6016 4.46484V2.73047C24.6016 1.42578 23.5273 0.347656 22.2227 0.347656H2.38281ZM2.38281 1.9375H22.2227C22.6641 1.9375 23.0156 2.28906 23.0156 2.73047V21.9258C23.0156 22.2969 22.7383 22.5703 22.3711 22.5703H15.0039C14.625 20.3203 12.6719 18.6016 10.3164 18.6016C7.96484 18.6016 6.00781 20.3203 5.62891 22.5703H2.38281C1.94141 22.5703 1.58594 22.2188 1.58594 21.7773V2.73047C1.58594 2.28906 1.94141 1.9375 2.38281 1.9375ZM30.1602 9.07812H35.168L37.1289 11.6836L37.1523 11.707C37.168 11.7305 37.3828 12.0352 37.625 12.5273C37.8242 12.9375 37.9297 13.4219 37.9961 13.8398H30.1602C30.0273 13.8398 29.8125 13.7422 29.6367 13.5703C29.4648 13.3945 29.3633 13.1797 29.3633 13.0469V9.87109C29.3633 9.48047 29.8438 9.07812 30.1602 9.07812ZM3.96875 9.87109V14.4844H5.01172V12.5781H6.89453V11.7812H5.01172V10.7422H7.14453V9.87109H3.96875ZM7.9375 9.87109V14.3125H8.80469V12.5781H9.84766C10.5586 12.5781 10.5586 13.1289 10.6406 13.8398C10.6406 14 10.6328 14.1562 10.7148 14.3125H11.7578C11.5977 14.1562 11.582 13.5977 11.582 13.5195C11.582 12.4102 11.1211 12.2539 10.9609 12.2539C11.1992 12.1719 11.6562 11.8516 11.6562 11.1367C11.6562 10.1055 10.7148 9.87109 10.3164 9.87109H7.9375ZM12.6992 9.87109V14.4844H16.1211V13.5938H13.6406V12.5039H15.8711V11.707H13.6406V10.7422H16.0234V9.87109H12.6992ZM17.2109 9.87109V14.4844H20.6367V13.5938H18.1797V12.5039H20.3867V11.707H18.1797V10.7422H20.5586V9.87109H17.2109ZM8.87891 10.668H9.99609C10.2344 10.668 10.7148 10.7578 10.7148 11.3125C10.7148 11.9453 10.2344 11.9297 9.99609 11.9297H8.87891V10.668ZM10.3164 20.1914C12.082 20.1914 13.4922 21.6016 13.4922 23.3633C13.4922 25.1289 12.082 26.5391 10.3164 26.5391C8.55469 26.5391 7.14453 25.1289 7.14453 23.3633C7.14453 21.6016 8.55469 20.1914 10.3164 20.1914ZM30.9531 20.1914C32.7148 20.1914 34.1289 21.6016 34.1289 23.3633C34.1289 25.1289 32.7148 26.5391 30.9531 26.5391C29.1875 26.5391 27.7773 25.1289 27.7773 23.3633C27.7773 21.6016 29.1875 20.1914 30.9531 20.1914Z" fill="white"/>
</svg>
