<svg width="22" height="17" viewBox="0 0 22 17" fill="none" xmlns="http://www.w3.org/2000/svg">
<path d="M2 2.5V0.993C2.00183 0.730378 2.1069 0.479017 2.29251 0.293218C2.47813 0.107418 2.72938 0.00209465 2.992 0H21.008C21.556 0 22 0.445 22 0.993V16.007C21.9982 16.2696 21.8931 16.521 21.7075 16.7068C21.5219 16.8926 21.2706 16.9979 21.008 17H2.992C2.72881 16.9997 2.4765 16.895 2.29049 16.7088C2.10448 16.5226 2 16.2702 2 16.007V15H20V4.3L12 11.5L2 2.5ZM0 7H5V9H0V7ZM0 11H8V13H0V11Z" fill="#00B84C"/>
</svg>
