<svg width="24" height="24" viewBox="0 0 24 24" fill="none" xmlns="http://www.w3.org/2000/svg">
<rect width="24" height="24" fill="#4B76A6"/>
<path d="M11.7357 8.00152C10.9814 7.99511 10.3485 8.00152 9.98412 8.17452C9.74759 8.28986 9.56221 8.55898 9.67088 8.5718C9.81152 8.59102 10.1311 8.65509 10.2974 8.88577C10.5147 9.18052 10.5019 9.84051 10.5019 9.84051C10.5019 9.84051 10.6234 11.6539 10.2143 11.8845C9.92659 12.0447 9.54303 11.7243 8.7056 10.2762C8.27729 9.53294 7.95127 8.71276 7.95127 8.71276C7.95127 8.71276 7.89374 8.55898 7.77867 8.48209C7.64443 8.37957 7.45904 8.34753 7.45904 8.34753L5.45176 8.36034C5.45176 8.36034 5.1577 8.37316 5.04903 8.50131C4.94675 8.62306 5.03624 8.86014 5.03624 8.86014C5.03624 8.86014 6.60243 12.5317 8.37958 14.3771C10.0033 16.0815 11.8508 15.9662 11.8508 15.9662H12.6882C12.6882 15.9662 12.9439 15.9406 13.0717 15.7996C13.1868 15.6714 13.1868 15.4344 13.1868 15.4344C13.1868 15.4344 13.1676 14.3066 13.6918 14.14C14.2032 13.9798 14.8617 15.2293 15.5585 15.7099C16.0891 16.0751 16.4918 15.9918 16.4918 15.9918L18.3648 15.9662C18.3648 15.9662 19.3365 15.9085 18.8762 15.1332C18.8379 15.0755 18.6077 14.5629 17.489 13.5249C16.3128 12.4356 16.4726 12.6086 17.8854 10.7248C18.742 9.57139 19.0872 8.87295 18.9785 8.5718C18.8762 8.28345 18.2434 8.36034 18.2434 8.36034L16.1402 8.37316C16.1402 8.37316 15.9804 8.35394 15.8653 8.41801C15.7566 8.4885 15.6799 8.64869 15.6799 8.64869C15.6799 8.64869 15.3475 9.53935 14.9064 10.2954C13.9667 11.8909 13.5895 11.9807 13.4361 11.8781C13.0845 11.6475 13.1676 10.949 13.1676 10.4556C13.1676 8.90499 13.4042 8.26423 12.7138 8.09763C12.4836 8.03996 12.3174 8.00152 11.7357 8.00152Z" fill="white"/>
</svg>
