<svg width="40" height="40" viewBox="0 0 40 40" fill="none" xmlns="http://www.w3.org/2000/svg">
<rect width="40" height="40" rx="20" fill="url(#paint0_linear)"/>
<path d="M19.9964 12.6218C22.4 12.6218 22.6821 12.6325 23.6321 12.6753C24.5107 12.7146 24.9857 12.8611 25.3036 12.9861C25.725 13.1504 26.025 13.3433 26.3393 13.6577C26.6536 13.972 26.85 14.2721 27.0107 14.6936C27.1321 15.0115 27.2821 15.4866 27.3214 16.3654C27.3643 17.3155 27.375 17.5977 27.375 20.0018C27.375 22.4058 27.3643 22.688 27.3214 23.6382C27.2821 24.517 27.1357 24.9921 27.0107 25.31C26.8464 25.7315 26.6536 26.0316 26.3393 26.3459C26.025 26.6602 25.725 26.8567 25.3036 27.0175C24.9857 27.1389 24.5107 27.2889 23.6321 27.3282C22.6821 27.3711 22.4 27.3818 19.9964 27.3818C17.5929 27.3818 17.3107 27.3711 16.3607 27.3282C15.4821 27.2889 15.0071 27.1425 14.6893 27.0175C14.2679 26.8531 13.9679 26.6602 13.6536 26.3459C13.3393 26.0316 13.1429 25.7315 12.9821 25.31C12.8607 24.9921 12.7107 24.517 12.6714 23.6382C12.6286 22.688 12.6179 22.4058 12.6179 20.0018C12.6179 17.5977 12.6286 17.3155 12.6714 16.3654C12.7107 15.4866 12.8571 15.0115 12.9821 14.6936C13.1464 14.2721 13.3393 13.972 13.6536 13.6577C13.9679 13.3433 14.2679 13.1469 14.6893 12.9861C15.0071 12.8647 15.4821 12.7146 16.3607 12.6753C17.3107 12.6289 17.5964 12.6218 19.9964 12.6218ZM19.9964 11C17.5536 11 17.2464 11.0107 16.2857 11.0536C15.3286 11.0964 14.675 11.25 14.1036 11.4715C13.5107 11.7001 13.0107 12.0109 12.5107 12.511C12.0107 13.0111 11.7036 13.5148 11.4714 14.1042C11.25 14.6757 11.0964 15.3294 11.0536 16.2903C11.0107 17.2477 11 17.5549 11 19.9982C11 22.4416 11.0107 22.7488 11.0536 23.7097C11.0964 24.667 11.25 25.3207 11.4714 25.8958C11.7 26.4888 12.0107 26.9889 12.5107 27.489C13.0107 27.9891 13.5143 28.2963 14.1036 28.5285C14.675 28.75 15.3286 28.9036 16.2893 28.9464C17.25 28.9893 17.5536 29 20 29C22.4464 29 22.75 28.9893 23.7107 28.9464C24.6679 28.9036 25.3214 28.75 25.8964 28.5285C26.4893 28.2999 26.9893 27.9891 27.4893 27.489C27.9893 26.9889 28.2964 26.4852 28.5286 25.8958C28.75 25.3243 28.9036 24.6706 28.9464 23.7097C28.9893 22.7488 29 22.4451 29 19.9982C29 17.5513 28.9893 17.2477 28.9464 16.2868C28.9036 15.3294 28.75 14.6757 28.5286 14.1006C28.3 13.5076 27.9893 13.0075 27.4893 12.5074C26.9893 12.0073 26.4857 11.7001 25.8964 11.468C25.325 11.2465 24.6714 11.0929 23.7107 11.05C22.7464 11.0107 22.4393 11 19.9964 11Z" fill="white"/>
<path d="M19.9964 15.3794C17.4464 15.3794 15.375 17.4477 15.375 20.0018C15.375 22.5559 17.4429 24.6241 19.9964 24.6241C22.55 24.6241 24.6179 22.5559 24.6179 20.0018C24.6179 17.4477 22.55 15.3794 19.9964 15.3794ZM19.9964 22.9988C18.3393 22.9988 16.9964 21.6557 16.9964 19.9982C16.9964 18.3407 18.3393 16.9976 19.9964 16.9976C21.6536 16.9976 22.9964 18.3407 22.9964 19.9982C22.9964 21.6557 21.6536 22.9988 19.9964 22.9988Z" fill="white"/>
<path d="M24.8 16.2725C25.3957 16.2725 25.8786 15.7895 25.8786 15.1937C25.8786 14.5979 25.3957 14.1149 24.8 14.1149C24.2043 14.1149 23.7214 14.5979 23.7214 15.1937C23.7214 15.7895 24.2043 16.2725 24.8 16.2725Z" fill="white"/>
<defs>
<linearGradient id="paint0_linear" x1="40" y1="0" x2="0" y2="40" gradientUnits="userSpaceOnUse">
<stop stop-color="#6F3FBB"/>
<stop offset="0.320442" stop-color="#C53185"/>
<stop offset="0.662983" stop-color="#EA4951"/>
<stop offset="1" stop-color="#FEC763"/>
</linearGradient>
</defs>
</svg>
