<svg width="16" height="20" viewBox="0 0 16 20" fill="none" xmlns="http://www.w3.org/2000/svg">
<path d="M13.6569 14.1421L8 20L2.34311 14.1421C1.2243 12.9835 0.462388 11.5074 0.153714 9.90041C-0.15496 8.29343 0.00347275 6.62774 0.608976 5.11399C1.21448 3.60025 2.23986 2.30643 3.55545 1.39614C4.87104 0.485861 6.41775 0 8 0C9.58225 0 11.129 0.485861 12.4445 1.39614C13.7601 2.30643 14.7855 3.60025 15.391 5.11399C15.9965 6.62774 16.155 8.29343 15.8463 9.90041C15.5376 11.5074 14.7757 12.9835 13.6569 14.1421ZM8 11.9661C8.94299 11.9661 9.84736 11.5782 10.5142 10.8877C11.181 10.1972 11.5556 9.2607 11.5556 8.2842C11.5556 7.3077 11.181 6.37119 10.5142 5.6807C9.84736 4.99021 8.94299 4.6023 8 4.6023C7.05701 4.6023 6.15264 4.99021 5.48584 5.6807C4.81905 6.37119 4.44445 7.3077 4.44445 8.2842C4.44445 9.2607 4.81905 10.1972 5.48584 10.8877C6.15264 11.5782 7.05701 11.9661 8 11.9661ZM8 10.1251C7.5285 10.1251 7.07632 9.93119 6.74292 9.58595C6.40952 9.2407 6.22222 8.77245 6.22222 8.2842C6.22222 7.79595 6.40952 7.3277 6.74292 6.98245C7.07632 6.63721 7.5285 6.44325 8 6.44325C8.4715 6.44325 8.92368 6.63721 9.25708 6.98245C9.59048 7.3277 9.77778 7.79595 9.77778 8.2842C9.77778 8.77245 9.59048 9.2407 9.25708 9.58595C8.92368 9.93119 8.4715 10.1251 8 10.1251Z" fill="#00B84C"/>
</svg>
