<svg width="240" height="147" viewBox="0 0 240 147" fill="none" xmlns="http://www.w3.org/2000/svg">
<path d="M8.96805 123.465L25.8451 144.786C26.6036 145.735 27.8046 146.304 28.9424 146.304H32.2925C33.5567 146.304 34.4416 145.229 34.4416 144.09C34.4416 143.647 34.3152 143.141 33.9359 142.698L17.5646 122.642L32.6718 105.497C33.051 105.118 33.1774 104.611 33.1774 104.105C33.1774 103.03 32.3557 102.017 31.1547 102.017H28.3103C27.1725 102.017 25.9083 102.587 25.213 103.473L8.96805 123.022V104.358C8.96805 103.093 7.89348 102.017 6.62929 102.017H3.532C2.26781 102.017 1.19324 103.093 1.19324 104.358V143.963C1.19324 145.229 2.26781 146.304 3.532 146.304H6.62929C7.89348 146.304 8.96805 145.229 8.96805 143.963V123.465Z" fill="#55646E"/>
<path d="M46.0806 117.834C44.7532 117.834 43.6787 118.846 43.6155 120.175L43.2994 126.691C42.7937 135.043 40.771 138.396 38.7483 139.408C37.4841 140.104 37.0416 140.484 37.0416 141.622C37.0416 141.875 37.0416 142.128 37.1048 142.445L37.3577 144.849C37.4841 145.924 38.4955 146.747 39.57 146.747C39.6964 146.747 39.7597 146.747 39.8229 146.747C45.891 146.051 49.0515 142.002 50.3157 128.147L50.5053 125.11H58.0273V143.963C58.0273 145.229 59.1019 146.304 60.3661 146.304H62.9577C64.2219 146.304 65.2964 145.229 65.2964 143.963V120.175C65.2964 118.91 64.2219 117.834 62.9577 117.834H46.0806Z" fill="#55646E"/>
<path d="M97.608 146.304C98.8722 146.304 99.9468 145.229 99.9468 143.963V120.175C99.9468 118.91 98.8722 117.834 97.608 117.834H94.574C93.4362 117.834 92.2352 118.467 91.5399 119.416L79.4036 135.865V120.175C79.4036 118.91 78.329 117.834 77.0648 117.834H74.4732C73.209 117.834 72.1345 118.91 72.1345 120.175V143.963C72.1345 145.229 73.209 146.304 74.4732 146.304H77.5073C78.6451 146.304 79.8461 145.671 80.5414 144.722L92.6777 128.273V143.963C92.6777 145.229 93.7522 146.304 95.0164 146.304H97.608Z" fill="#55646E"/>
<path d="M128.856 117.834C127.592 117.834 126.518 118.91 126.518 120.175V128.589H114.065V120.175C114.065 118.91 112.991 117.834 111.727 117.834H109.135C107.871 117.834 106.796 118.91 106.796 120.175V143.963C106.796 145.229 107.871 146.304 109.135 146.304H111.727C112.991 146.304 114.065 145.229 114.065 143.963V135.422H126.518V143.963C126.518 145.229 127.592 146.304 128.856 146.304H131.448C132.712 146.304 133.787 145.229 133.787 143.963V120.175C133.787 118.91 132.712 117.834 131.448 117.834H128.856Z" fill="#55646E"/>
<path d="M151.19 123.465L168.067 144.786C168.826 145.735 170.027 146.304 171.165 146.304H174.515C175.779 146.304 176.664 145.229 176.664 144.09C176.664 143.647 176.537 143.141 176.158 142.698L159.787 122.642L174.894 105.497C175.273 105.118 175.4 104.611 175.4 104.105C175.4 103.03 174.578 102.017 173.377 102.017H170.532C169.395 102.017 168.13 102.587 167.435 103.473L151.19 123.022V104.358C151.19 103.093 150.116 102.017 148.851 102.017H145.754C144.49 102.017 143.415 103.093 143.415 104.358V143.963C143.415 145.229 144.49 146.304 145.754 146.304H148.851C150.116 146.304 151.19 145.229 151.19 143.963V123.465Z" fill="#55646E"/>
<path d="M192.918 147C202.336 147 208.404 140.61 208.404 132.069C208.404 123.528 202.336 117.138 192.918 117.138C183.499 117.138 177.431 123.528 177.431 132.069C177.431 140.61 183.499 147 192.918 147ZM192.918 123.971C197.342 123.971 200.692 127.261 200.692 132.069C200.692 137.004 197.406 140.23 192.918 140.23C188.493 140.23 185.206 136.814 185.206 132.069C185.206 127.134 188.619 123.971 192.918 123.971Z" fill="#55646E"/>
<path d="M224.619 117.518C221.395 117.518 218.171 117.644 215.77 117.771C214.442 117.834 213.431 118.846 213.431 120.175V143.963C213.431 145.292 214.442 146.304 215.77 146.367C218.488 146.431 222.09 146.62 224.745 146.62C233.911 146.62 238.272 143.647 238.272 138.016C238.272 134.726 236.186 132.385 232.204 131.373C235.049 130.867 237.514 128.4 237.514 124.983C237.514 119.795 232.899 117.518 224.619 117.518ZM220.7 134.22H225.251C228.664 134.22 230.624 135.359 230.624 137.51C230.624 139.471 228.728 140.8 225.504 140.8C223.734 140.8 221.774 140.61 220.7 140.547V134.22ZM220.7 123.528C221.458 123.465 223.544 123.402 225.251 123.402C227.969 123.402 229.802 124.414 229.802 126.502C229.802 128.716 227.843 129.791 225.441 129.791H220.7V123.528Z" fill="#55646E"/>
<path d="M129.383 52.7222C129.383 58.5457 124.961 63.2667 119.507 63.2667C114.052 63.2667 109.63 58.5457 109.63 52.7222C109.63 44.8139 115.803 40.8597 119.507 31.6333C123.21 40.8597 129.383 44.8139 129.383 52.7222Z" fill="#2F89CA"/>
<path d="M160.988 52.7222C160.988 58.5457 156.566 63.2667 151.111 63.2667C145.657 63.2667 141.235 58.5457 141.235 52.7222C141.235 44.8139 147.408 40.8597 151.111 31.6333C154.815 40.8597 160.988 44.8139 160.988 52.7222Z" fill="#2F89CA"/>
<path d="M192.592 52.7222C192.592 58.5457 188.171 63.2667 182.716 63.2667C177.261 63.2667 172.839 58.5457 172.839 52.7222C172.839 44.8139 179.012 40.8597 182.716 31.6333C186.42 40.8597 192.592 44.8139 192.592 52.7222Z" fill="#2F89CA"/>
<path d="M145.185 21.0889C145.185 26.9124 140.763 31.6333 135.309 31.6333C129.854 31.6333 125.432 26.9124 125.432 21.0889C125.432 13.1806 131.605 9.22639 135.309 0C139.012 9.22639 145.185 13.1806 145.185 21.0889Z" fill="#2F89CA"/>
<path d="M176.79 21.0889C176.79 26.9124 172.368 31.6333 166.914 31.6333C161.459 31.6333 157.037 26.9124 157.037 21.0889C157.037 13.1806 163.21 9.22639 166.914 0C170.617 9.22639 176.79 13.1806 176.79 21.0889Z" fill="#2F89CA"/>
<path fill-rule="evenodd" clip-rule="evenodd" d="M0 39.8394C0 18.3412 17.3028 0.987656 38.7682 0.987656C60.2336 0.987656 77.5365 18.3412 77.5365 39.8394C77.5365 56.6723 63.98 70.2709 47.169 70.2709C30.3581 70.2709 16.8015 56.6723 16.8015 39.8394C16.8015 27.7857 26.6118 17.9422 38.6547 17.9422C50.6977 17.9422 60.508 27.7857 60.508 39.8394C60.508 47.3417 54.5575 53.3163 47.0555 53.3163C39.5107 53.3163 33.6029 47.1848 33.6029 39.8394C33.6029 37.1097 35.8139 34.8967 38.5412 34.8967C41.2685 34.8967 43.4795 37.1097 43.4795 39.8394C43.4795 41.8248 45.0643 43.4309 47.0555 43.4309C49.0894 43.4309 50.6315 41.8955 50.6315 39.8394C50.6315 33.2318 45.2296 27.8276 38.6547 27.8276C32.0798 27.8276 26.678 33.2318 26.678 39.8394C26.678 51.2262 35.8261 60.3855 47.169 60.3855C58.5119 60.3855 67.66 51.2262 67.66 39.8394C67.66 23.7874 54.7656 10.8731 38.7682 10.8731C22.7709 10.8731 9.87654 23.7874 9.87654 39.8394C9.87654 60.5023 26.7008 77.1053 47.4074 77.1053L235.062 77.1053C237.789 77.1053 240 79.3182 240 82.048C240 84.7778 237.789 86.9907 235.062 86.9907L47.4074 86.9907C21.3423 86.9907 0 66.0576 0 39.8394Z" fill="#00B84C"/>
</svg>
