<svg width="40" height="40" viewBox="0 0 40 40" fill="none" xmlns="http://www.w3.org/2000/svg">
<rect width="40" height="40" rx="20" fill="#ED8225"/>
<path d="M20.0015 13.6807C21.0204 13.6807 21.8459 14.4874 21.8459 15.4832C21.8459 16.4748 21.0204 17.2815 20.0015 17.2815C18.9826 17.2815 18.1572 16.4748 18.1572 15.4832C18.1572 14.4874 18.9826 13.6807 20.0015 13.6807ZM20.0015 19.9622C22.5295 19.9622 24.5845 17.9538 24.5845 15.4832C24.5845 13.0084 22.5295 11 20.0015 11C17.4736 11 15.4143 13.0084 15.4143 15.4832C15.4143 17.9496 17.4736 19.9622 20.0015 19.9622ZM21.8029 23.3866C22.71 23.1849 23.5828 22.8361 24.391 22.3361C25.0015 21.9622 25.1821 21.1765 24.7995 20.5798C24.4168 19.9832 23.6086 19.8025 22.9981 20.1807C21.1752 21.3025 18.8278 21.3025 17.005 20.1807C16.3902 19.8025 15.5862 19.9832 15.1993 20.5798C14.8167 21.1765 15.0015 21.9622 15.612 22.3361C16.416 22.8361 17.293 23.1849 18.2002 23.3866L15.7066 25.8235C15.1993 26.3193 15.1993 27.1261 15.7109 27.6261C15.9646 27.8739 16.2956 28 16.6309 28C16.962 28 17.3016 27.8739 17.5553 27.6261L20.0015 25.2353L22.4521 27.6261C22.9594 28.1218 23.7848 28.1218 24.2965 27.6261C24.8038 27.1261 24.8038 26.3193 24.2965 25.8235L21.8029 23.3866Z" fill="white"/>
</svg>
