<svg width="16" height="16" viewBox="0 0 16 16" fill="none" xmlns="http://www.w3.org/2000/svg">
<path d="M15.9991 11.9289V15.072C15.9992 15.297 15.914 15.5138 15.7605 15.6784C15.6071 15.843 15.397 15.9434 15.1725 15.9591C14.7841 15.9858 14.4668 16 14.2214 16C6.36676 16 0 9.63289 0 1.77778C0 1.53244 0.0133326 1.21511 0.0408866 0.826667C0.056639 0.602172 0.156952 0.39201 0.321585 0.238586C0.486218 0.0851616 0.702915 -0.000101718 0.927949 2.28071e-07H4.07089C4.18114 -0.000111408 4.28749 0.0407636 4.36929 0.114685C4.4511 0.188606 4.5025 0.290296 4.51353 0.4C4.53397 0.604445 4.55264 0.767111 4.57041 0.890667C4.74706 2.12349 5.10905 3.32252 5.64413 4.44711C5.72857 4.62489 5.67346 4.83733 5.51347 4.95111L3.59536 6.32178C4.76814 9.05462 6.94588 11.2325 9.67857 12.4053L11.0474 10.4907C11.1033 10.4124 11.185 10.3563 11.278 10.3321C11.3711 10.3079 11.4697 10.3172 11.5567 10.3582C12.6811 10.8923 13.8797 11.2534 15.1121 11.4293C15.2356 11.4471 15.3983 11.4667 15.6009 11.4862C15.7105 11.4975 15.8119 11.549 15.8857 11.6307C15.9594 11.7125 16.0001 11.8188 16 11.9289H15.9991Z" fill="#00B84C"/>
</svg>
