<svg width="28" height="21" viewBox="0 0 28 21" fill="none" xmlns="http://www.w3.org/2000/svg">
<path d="M3.03416 18.6089C1.49377 17.0092 0.666748 15.2149 0.666748 12.3064C0.666748 7.18831 4.34125 2.60105 9.68475 0.333008L11.0203 2.34807C6.03268 4.98607 5.0576 8.40934 4.66877 10.5677C5.47186 10.1612 6.52322 10.0193 7.55363 10.1129C10.2516 10.3571 12.3782 12.5228 12.3782 15.2149C12.3782 16.5723 11.8267 17.8741 10.8451 18.834C9.86346 19.7938 8.53209 20.333 7.14386 20.333C5.53916 20.333 4.00476 19.6165 3.03416 18.6089ZM17.9894 18.6089C16.449 17.0092 15.622 15.2149 15.622 12.3064C15.622 7.18831 19.2965 2.60105 24.64 0.333008L25.9755 2.34807C20.9879 4.98607 20.0128 8.40934 19.624 10.5677C20.4271 10.1612 21.4784 10.0193 22.5089 10.1129C25.2068 10.3571 27.3334 12.5228 27.3334 15.2149C27.3334 16.5723 26.7819 17.8741 25.8003 18.834C24.8187 19.7938 23.4873 20.333 22.0991 20.333C20.4944 20.333 18.96 19.6165 17.9894 18.6089Z" fill="#33C670"/>
</svg>
