<svg width="16" height="16" viewBox="0 0 16 16" fill="none" xmlns="http://www.w3.org/2000/svg">
<path d="M12 3.20012H16V4.80012H14.4V15.2001C14.4 15.4123 14.3157 15.6158 14.1657 15.7658C14.0157 15.9158 13.8122 16.0001 13.6 16.0001H2.4C2.18783 16.0001 1.98434 15.9158 1.83431 15.7658C1.68429 15.6158 1.6 15.4123 1.6 15.2001V4.80012H0V3.20012H4V0.800122C4 0.587949 4.08429 0.384466 4.23431 0.234437C4.38434 0.0844075 4.58783 0.00012207 4.8 0.00012207H11.2C11.4122 0.00012207 11.6157 0.0844075 11.7657 0.234437C11.9157 0.384466 12 0.587949 12 0.800122V3.20012ZM12.8 4.80012H3.2V14.4001H12.8V4.80012ZM9.1312 9.60012L10.5456 11.0145L9.4144 12.1457L8 10.7313L6.5856 12.1457L5.4544 11.0145L6.8688 9.60012L5.4544 8.18572L6.5856 7.05452L8 8.46892L9.4144 7.05452L10.5456 8.18572L9.1312 9.60012ZM5.6 1.60012V3.20012H10.4V1.60012H5.6Z" fill="#C7CECD"/>
</svg>
