<svg width="182" height="182" viewBox="0 0 182 182" fill="none" xmlns="http://www.w3.org/2000/svg">
<path d="M91 0.375C41 0.375 0.375 41 0.375 91C0.375 141 41 181.625 91 181.625C141 181.625 181.625 141 181.625 91C181.625 41 141 0.375 91 0.375ZM91 9.75C135.843 9.75 172.25 46.1575 172.25 91C172.25 135.843 135.843 172.25 91 172.25C46.1575 172.25 9.75 135.843 9.75 91C9.75 46.1575 46.1575 9.75 91 9.75ZM123.867 67.4832C122.677 67.5198 121.469 68.0325 120.535 68.9724L89.3392 101.352C88.5436 102.177 87.2179 102.166 86.436 101.328L70.8401 84.5974C69.125 82.7175 66.1587 82.5588 64.2849 84.28C62.405 86.0012 62.2463 88.9675 63.9675 90.8474L84.4387 112.875C85.3787 113.815 86.4712 114.438 87.875 114.438C89.1262 114.438 90.3713 113.968 91.3113 113.028L127.249 75.375C128.97 73.5012 128.97 70.5349 127.09 68.8137C126.236 67.8738 125.064 67.4465 123.867 67.4832Z" fill="url(#paint0_linear)"/>
<defs>
<linearGradient id="paint0_linear" x1="91" y1="0.375" x2="91" y2="181.625" gradientUnits="userSpaceOnUse">
<stop stop-color="#33C670"/>
<stop offset="1" stop-color="#00B84C"/>
</linearGradient>
</defs>
</svg>
