<svg width="40" height="40" viewBox="0 0 40 40" fill="none" xmlns="http://www.w3.org/2000/svg">
<rect width="40" height="40" rx="20" fill="#4B76A6"/>
<path d="M19.6602 15.0019C18.6903 14.9939 17.8766 15.0019 17.4082 15.2182C17.104 15.3623 16.8657 15.6987 17.0054 15.7147C17.1862 15.7388 17.5972 15.8189 17.8109 16.1072C18.0903 16.4756 18.0739 17.3006 18.0739 17.3006C18.0739 17.3006 18.2301 19.5673 17.704 19.8557C17.3342 20.0559 16.841 19.6554 15.7643 17.8453C15.2137 16.9162 14.7945 15.891 14.7945 15.891C14.7945 15.891 14.7205 15.6987 14.5726 15.6026C14.4 15.4745 14.1616 15.4344 14.1616 15.4344L11.5808 15.4504C11.5808 15.4504 11.2028 15.4665 11.063 15.6266C10.9315 15.7788 11.0466 16.0752 11.0466 16.0752C11.0466 16.0752 13.0603 20.6646 15.3452 22.9714C17.4328 25.1019 19.8081 24.9577 19.8081 24.9577H20.8848C20.8848 24.9577 21.2136 24.9257 21.378 24.7495C21.5259 24.5893 21.5259 24.293 21.5259 24.293C21.5259 24.293 21.5012 22.8833 22.1752 22.675C22.8327 22.4748 23.6793 24.0366 24.5752 24.6374C25.2574 25.0939 25.7752 24.9898 25.7752 24.9898L28.1833 24.9577C28.1833 24.9577 29.4326 24.8857 28.8409 23.9165C28.7916 23.8444 28.4957 23.2037 27.0573 21.9061C25.545 20.5445 25.7505 20.7608 27.5669 18.4059C28.6683 16.9642 29.1121 16.0912 28.9724 15.7147C28.8409 15.3543 28.0272 15.4504 28.0272 15.4504L25.3231 15.4664C25.3231 15.4664 25.1176 15.4424 24.9697 15.5225C24.83 15.6106 24.7313 15.8109 24.7313 15.8109C24.7313 15.8109 24.3039 16.9242 23.7368 17.8693C22.5286 19.8637 22.0437 19.9758 21.8464 19.8477C21.3944 19.5593 21.5012 18.6863 21.5012 18.0695C21.5012 16.1312 21.8054 15.3303 20.9177 15.122C20.6218 15.05 20.4081 15.0019 19.6602 15.0019Z" fill="white"/>
</svg>
